<svg xmlns="http://www.w3.org/2000/svg" width="34" height="35" viewBox="0 0 34 35">
  <g id="Group_414" data-name="Group 414" transform="translate(-31 -121)">
    <path id="Icon_material-group" data-name="Icon material-group" d="M15.383,13.053a2.777,2.777,0,1,0-2.777-2.777A2.765,2.765,0,0,0,15.383,13.053Zm-7.4,0A2.777,2.777,0,1,0,5.2,10.277,2.765,2.765,0,0,0,7.979,13.053Zm0,1.851C5.822,14.9,1.5,15.987,1.5,18.143v2.314H14.457V18.143C14.457,15.987,10.135,14.9,7.979,14.9Zm7.4,0c-.268,0-.574.019-.9.046a3.906,3.906,0,0,1,1.823,3.193v2.314h5.553V18.143C21.861,15.987,17.539,14.9,15.383,14.9Z" transform="translate(36.5 124.5)"/>
    <rect id="Rectangle_3" data-name="Rectangle 3" width="34" height="35" transform="translate(31 121)" fill="none"/>
  </g>
</svg>
