<svg xmlns="http://www.w3.org/2000/svg" width="35" height="35" viewBox="0 0 35 35">
  <g id="Group_411" data-name="Group 411" transform="translate(-31 -237)">
    <g id="Rectangle_195" data-name="Rectangle 195" transform="translate(31 237)" fill="#fff" stroke="#707070" stroke-width="1" opacity="0">
      <rect width="35" height="35" stroke="none"/>
      <rect x="0.5" y="0.5" width="34" height="34" fill="none"/>
    </g>
    <path id="Icon_awesome-chalkboard-teacher" data-name="Icon awesome-chalkboard-teacher" d="M6.791,11.493a.747.747,0,0,0-.231.036,4.307,4.307,0,0,1-1.337.226,4.311,4.311,0,0,1-1.337-.226.745.745,0,0,0-.23-.036A3.657,3.657,0,0,0,0,15.171a1.563,1.563,0,0,0,1.567,1.547H8.881a1.563,1.563,0,0,0,1.567-1.547A3.657,3.657,0,0,0,6.791,11.493ZM5.224,10.448A3.135,3.135,0,1,0,2.09,7.314,3.135,3.135,0,0,0,5.224,10.448ZM19.33,0H6.791A1.6,1.6,0,0,0,5.224,1.619V3.135a4.132,4.132,0,0,1,2.09.581V2.09H18.807v9.4h-2.09V9.4H12.538v2.09H10.049a4.161,4.161,0,0,1,1.3,2.09H19.33A1.6,1.6,0,0,0,20.9,11.964V1.619A1.6,1.6,0,0,0,19.33,0Z" transform="translate(38 246)"/>
  </g>
</svg>
